<?xml version="1.0" encoding="UTF-8" standalone="no"?>
<svg
   version="1.0"
   viewBox="0 0 512.000000 512.000000"
   preserveAspectRatio="xMidYMid meet"
   id="svg1"
   sodipodi:docname="borde-del-marco-como-un-sello.svg"
   inkscape:version="1.4.2 (ebf0e940d0, 2025-05-08)"
   xmlns:inkscape="http://www.inkscape.org/namespaces/inkscape"
   xmlns:sodipodi="http://sodipodi.sourceforge.net/DTD/sodipodi-0.dtd"
   xmlns="http://www.w3.org/2000/svg"
   xmlns:svg="http://www.w3.org/2000/svg">
  <defs
     id="defs1" />
  <sodipodi:namedview
     id="namedview1"
     pagecolor="#ffffff"
     bordercolor="#000000"
     borderopacity="0.25"
     inkscape:showpageshadow="2"
     inkscape:pageopacity="0.0"
     inkscape:pagecheckerboard="0"
     inkscape:deskcolor="#d1d1d1"
     inkscape:document-units="pt"
     inkscape:zoom="0.76960011"
     inkscape:cx="368.37313"
     inkscape:cy="346.28374"
     inkscape:window-width="1225"
     inkscape:window-height="911"
     inkscape:window-x="0"
     inkscape:window-y="0"
     inkscape:window-maximized="0"
     inkscape:current-layer="g1" />
  <g
     transform="translate(0.000000,512.000000) scale(0.100000,-0.100000)"
     fill="#000000"
     stroke="none"
     id="g1">
    <path
       d="m 4623,5102 c -88,-32 -165,-105 -195,-188 -11,-31 -15,-34 -54,-34 -36,0 -43,4 -53,29 -7,16 -31,47 -53,69 -94,96 -233,122 -362,68 -45,-19 -117,-85 -142,-131 l -19,-35 h -71 c -70,0 -72,1 -84,30 -20,48 -112,126 -172,146 -67,22 -149,22 -216,0 -60,-20 -152,-98 -172,-146 -12,-30 -13,-30 -89,-30 h -76 l -20,36 c -29,54 -108,120 -168,140 -66,22 -148,22 -215,0 -60,-20 -152,-98 -172,-146 -12,-29 -14,-30 -80,-30 -67,0 -68,0 -92,38 -14,20 -40,52 -59,70 -89,87 -228,110 -353,58 -45,-19 -117,-85 -142,-131 l -19,-35 h -76 -76 l -31,49 c -90,139 -267,185 -419,109 -47,-24 -116,-91 -135,-133 -10,-23 -17,-25 -78,-25 -66,0 -66,0 -78,34 -19,53 -84,119 -148,151 -52,26 -70,30 -144,30 -68,0 -94,-4 -131,-23 C 93,5005 20,4871 41,4727 56,4627 131,4525 219,4486 l 41,-19 v -76 -76 l -50,-24 c -60,-28 -124,-95 -153,-159 -30,-66 -30,-188 0,-254 29,-64 92,-130 152,-158 l 51,-23 v -67 -66 l -37,-13 C 164,3529 76,3435 50,3365 -6,3212 68,3034 216,2968 l 44,-19 v -54 -55 l -50,-25 c -63,-32 -121,-90 -151,-153 -34,-69 -34,-196 1,-267 31,-64 92,-124 153,-153 l 47,-22 v -63 -62 l -43,-18 C 162,2055 96,1990 62,1925 39,1882 35,1862 35,1790 c 0,-73 4,-93 28,-142 31,-64 90,-120 154,-150 l 43,-19 v -57 c 0,-58 0,-58 -37,-71 C 164,1329 76,1235 50,1165 -6,1012 68,834 216,768 l 44,-19 v -59 c 0,-58 -1,-59 -35,-76 C 172,589 94,499 75,440 22,281 90,116 240,38 302,6 419,1 492,26 c 73,26 148,98 182,174 35,77 60,81 95,15 32,-60 91,-118 149,-147 67,-33 206,-33 272,-1 59,29 124,94 151,149 l 21,44 h 58 58 l 21,-44 c 27,-55 92,-120 151,-149 66,-32 205,-32 272,1 59,29 121,90 148,148 l 22,44 h 64 64 l 21,-45 c 29,-61 116,-139 180,-160 71,-24 178,-17 244,15 60,29 124,93 149,149 l 19,41 h 57 c 57,0 57,0 75,-40 24,-53 94,-123 153,-152 67,-33 206,-33 272,-1 59,29 124,94 151,149 l 21,44 h 66 67 l 29,-55 c 53,-103 138,-156 258,-163 59,-3 89,0 129,14 66,24 143,92 175,155 l 24,49 h 55 c 44,0 57,-4 61,-17 14,-50 61,-127 92,-155 49,-43 137,-81 198,-86 106,-9 229,51 291,141 98,144 64,342 -77,443 l -50,36 v 66 67 l 45,24 c 56,30 110,89 139,150 32,71 30,199 -6,266 -28,54 -96,123 -147,149 -30,16 -31,19 -31,79 l 1,62 52,30 c 139,81 196,269 124,410 -30,59 -87,119 -139,146 l -38,19 v 68 l 1,67 58,36 c 172,107 201,344 60,488 -21,22 -56,49 -79,61 l -40,20 v 63 62 l 45,24 c 56,29 110,89 139,150 32,70 29,198 -6,266 -28,54 -96,123 -147,149 -30,16 -31,18 -31,90 0,73 0,74 29,84 47,16 118,89 148,151 24,47 28,69 28,136 0,67 -4,89 -28,136 -30,62 -101,135 -148,151 l -29,10 v 100 99 l 56,51 c 82,76 108,133 109,238 0,71 -4,94 -26,140 -71,149 -247,225 -396,172 z"
       id="path1"
       sodipodi:nodetypes="ccscccccsccccsccsccsccccccccccscssccccccccccccccccccccccccccccscccsccccsccccccccccccccccccccccccsccccccccccccsccccccccccccccccccccccccccccccsccsccccccccc" />
  </g>
</svg>
