<?xml version="1.0" standalone="no"?>
<!DOCTYPE svg PUBLIC "-//W3C//DTD SVG 20010904//EN"
 "http://www.w3.org/TR/2001/REC-SVG-20010904/DTD/svg10.dtd">
<svg version="1.0" xmlns="http://www.w3.org/2000/svg"
 width="2168.000000pt" height="727.000000pt" viewBox="0 0 2168.000000 727.000000"
 preserveAspectRatio="xMidYMid meet">

<g transform="translate(0.000000,727.000000) scale(0.100000,-0.100000)"
fill="#000000" stroke="none">
<path d="M19130 6819 c-140 -21 -392 -59 -560 -83 -168 -25 -350 -52 -405 -61
-55 -9 -264 -41 -465 -70 -368 -54 -719 -106 -1150 -171 -129 -20 -323 -48
-430 -64 -180 -27 -197 -31 -217 -55 -25 -29 -30 -72 -10 -98 13 -18 718 -367
742 -367 50 0 -8 38 -197 131 -487 238 -513 252 -516 280 -2 14 3 31 10 36 7
6 112 25 233 43 121 17 308 44 415 61 107 16 317 47 465 69 149 22 419 62 600
89 340 51 1003 150 1320 196 99 15 228 35 288 44 59 10 107 14 107 11 0 -4
-66 -32 -147 -63 -82 -30 -254 -97 -383 -147 -129 -50 -352 -136 -495 -191
-143 -55 -316 -122 -385 -149 -69 -27 -208 -81 -310 -120 -102 -39 -257 -100
-345 -134 -88 -35 -245 -96 -350 -136 -104 -40 -199 -81 -210 -92 -19 -18 -20
-33 -23 -491 -1 -259 0 -482 3 -494 8 -35 45 -63 82 -63 24 0 44 10 73 36 22
20 40 31 40 24 0 -18 -150 -303 -236 -447 -106 -179 -202 -303 -339 -438 -140
-140 -250 -224 -425 -329 -298 -178 -665 -298 -1076 -353 -183 -24 -690 -24
-899 0 -427 49 -839 143 -1325 302 -336 110 -579 167 -865 202 -198 24 -618
24 -810 -1 -412 -53 -769 -163 -1125 -348 -276 -143 -513 -318 -730 -539
l-136 -138 -110 44 c-226 91 -461 135 -731 135 -434 0 -863 -114 -1347 -360
-373 -188 -675 -387 -1088 -716 -91 -73 -206 -161 -255 -196 -847 -612 -2018
-960 -3297 -981 -94 -1 -141 -6 -143 -13 -7 -20 90 -27 291 -20 1068 38 2044
299 2824 758 220 129 340 213 572 399 768 614 1436 959 2060 1063 307 51 654
36 918 -40 93 -27 262 -91 276 -105 6 -5 2 -17 -11 -31 -76 -84 -204 -319
-244 -448 -19 -62 -24 -97 -24 -200 0 -122 1 -127 33 -193 86 -176 268 -280
459 -263 296 27 517 270 475 523 -19 113 -79 220 -181 322 -86 87 -247 204
-362 261 -31 16 -60 34 -64 40 -3 6 20 38 52 71 32 33 78 82 103 108 101 105
296 258 471 369 410 260 911 425 1433 473 161 15 567 6 726 -15 257 -35 495
-92 785 -186 383 -124 566 -174 886 -239 482 -99 1008 -123 1436 -66 483 64
919 235 1267 498 108 81 327 301 407 409 95 128 195 298 324 550 l114 224 88
74 c49 41 147 125 220 187 72 62 140 113 150 113 10 0 209 -128 442 -285 262
-176 434 -285 448 -285 40 0 60 17 106 92 24 40 78 127 119 193 41 66 181 293
312 505 131 212 278 448 326 525 124 199 340 549 428 693 60 98 73 127 65 140
-5 10 -17 18 -26 20 -8 2 -93 -40 -189 -94 -95 -53 -288 -160 -428 -237 -488
-268 -951 -523 -1190 -655 -275 -152 -426 -267 -588 -446 -89 -100 -201 -270
-267 -408 -49 -102 -64 -123 -118 -171 -83 -73 -98 -80 -125 -61 l-22 15 0
472 c0 260 4 478 9 485 7 12 122 59 456 187 77 29 246 94 375 145 129 50 269
104 310 120 41 15 127 48 190 73 338 132 804 313 1140 442 96 37 181 72 188
77 18 16 15 46 -7 58 -11 5 -21 10 -23 9 -2 -1 -118 -19 -258 -40z m519 -41
c-7 -13 -22 -39 -34 -58 -46 -73 -257 -414 -400 -645 -81 -132 -169 -274 -195
-315 -26 -41 -107 -172 -180 -290 -73 -118 -149 -242 -170 -275 -21 -33 -90
-145 -155 -250 -131 -212 -140 -225 -167 -225 -10 0 -193 118 -407 263 -455
307 -470 315 -505 302 -14 -6 -108 -80 -207 -165 -100 -85 -186 -157 -191
-159 -30 -11 126 248 222 369 173 217 330 337 710 545 69 37 184 100 255 140
72 39 182 100 245 135 117 64 308 170 480 265 52 29 212 117 355 195 143 79
278 153 300 166 50 29 59 30 44 2z m-10479 -4246 c271 -172 411 -371 398 -561
-10 -143 -110 -276 -259 -346 -239 -112 -484 -43 -596 170 -76 144 -63 307 42
531 41 89 131 234 182 294 l25 31 77 -42 c42 -23 101 -58 131 -77z"/>
</g>
</svg>
